<svg width="275" height="73" viewBox="0 0 275 73" fill="none" xmlns="http://www.w3.org/2000/svg">
<g style="mix-blend-mode:overlay">
<g filter="url(#filter0_i_4_249)">
<path d="M10 25C10 16.7157 16.7157 10 25 10H260C268.284 10 275 16.7157 275 25V58C275 66.2843 268.284 73 260 73H25C16.7157 73 10 66.2843 10 58V25Z" fill="#D9D9D9"/>
</g>
<path d="M10.5 25C10.5 16.9919 16.9919 10.5 25 10.5H260C268.008 10.5 274.5 16.9919 274.5 25V58C274.5 66.0081 268.008 72.5 260 72.5H25C16.9919 72.5 10.5 66.0081 10.5 58V25Z" stroke="black"/>
</g>
<defs>
<filter id="filter0_i_4_249" x="10" y="10" width="265" height="67" filterUnits="userSpaceOnUse" color-interpolation-filters="sRGB">
<feFlood flood-opacity="0" result="BackgroundImageFix"/>
<feBlend mode="normal" in="SourceGraphic" in2="BackgroundImageFix" result="shape"/>
<feColorMatrix in="SourceAlpha" type="matrix" values="0 0 0 0 0 0 0 0 0 0 0 0 0 0 0 0 0 0 127 0" result="hardAlpha"/>
<feOffset dy="4"/>
<feGaussianBlur stdDeviation="2"/>
<feComposite in2="hardAlpha" operator="arithmetic" k2="-1" k3="1"/>
<feColorMatrix type="matrix" values="0 0 0 0 0 0 0 0 0 0 0 0 0 0 0 0 0 0 0.25 0"/>
<feBlend mode="normal" in2="shape" result="effect1_innerShadow_4_249"/>
</filter>
</defs>
</svg>
