<svg width="332" height="63" viewBox="0 0 332 63" fill="none" xmlns="http://www.w3.org/2000/svg">
<g style="mix-blend-mode:overlay">
<g filter="url(#filter0_i_4_313)">
<path d="M0 15C0 6.71573 6.71573 0 15 0H317C325.284 0 332 6.71573 332 15V48C332 56.2843 325.284 63 317 63H15C6.71573 63 0 56.2843 0 48V15Z" fill="#D9D9D9"/>
</g>
<path d="M0.5 15C0.5 6.99187 6.99187 0.5 15 0.5H317C325.008 0.5 331.5 6.99187 331.5 15V48C331.5 56.0081 325.008 62.5 317 62.5H15C6.99188 62.5 0.5 56.0081 0.5 48V15Z" stroke="black"/>
</g>
<defs>
<filter id="filter0_i_4_313" x="0" y="0" width="332" height="67" filterUnits="userSpaceOnUse" color-interpolation-filters="sRGB">
<feFlood flood-opacity="0" result="BackgroundImageFix"/>
<feBlend mode="normal" in="SourceGraphic" in2="BackgroundImageFix" result="shape"/>
<feColorMatrix in="SourceAlpha" type="matrix" values="0 0 0 0 0 0 0 0 0 0 0 0 0 0 0 0 0 0 127 0" result="hardAlpha"/>
<feOffset dy="4"/>
<feGaussianBlur stdDeviation="2"/>
<feComposite in2="hardAlpha" operator="arithmetic" k2="-1" k3="1"/>
<feColorMatrix type="matrix" values="0 0 0 0 0 0 0 0 0 0 0 0 0 0 0 0 0 0 0.25 0"/>
<feBlend mode="normal" in2="shape" result="effect1_innerShadow_4_313"/>
</filter>
</defs>
</svg>
