<svg width="321" height="63" viewBox="0 0 321 63" fill="none" xmlns="http://www.w3.org/2000/svg">
<g style="mix-blend-mode:overlay">
<g filter="url(#filter0_i_4_312)">
<path d="M0 15C0 6.71573 6.71573 0 15 0H306C314.284 0 321 6.71573 321 15V48C321 56.2843 314.284 63 306 63H15C6.71573 63 0 56.2843 0 48V15Z" fill="#D9D9D9"/>
</g>
<path d="M0.5 15C0.5 6.99187 6.99187 0.5 15 0.5H306C314.008 0.5 320.5 6.99187 320.5 15V48C320.5 56.0081 314.008 62.5 306 62.5H15C6.99187 62.5 0.5 56.0081 0.5 48V15Z" stroke="black"/>
</g>
<defs>
<filter id="filter0_i_4_312" x="0" y="0" width="321" height="67" filterUnits="userSpaceOnUse" color-interpolation-filters="sRGB">
<feFlood flood-opacity="0" result="BackgroundImageFix"/>
<feBlend mode="normal" in="SourceGraphic" in2="BackgroundImageFix" result="shape"/>
<feColorMatrix in="SourceAlpha" type="matrix" values="0 0 0 0 0 0 0 0 0 0 0 0 0 0 0 0 0 0 127 0" result="hardAlpha"/>
<feOffset dy="4"/>
<feGaussianBlur stdDeviation="2"/>
<feComposite in2="hardAlpha" operator="arithmetic" k2="-1" k3="1"/>
<feColorMatrix type="matrix" values="0 0 0 0 0 0 0 0 0 0 0 0 0 0 0 0 0 0 0.25 0"/>
<feBlend mode="normal" in2="shape" result="effect1_innerShadow_4_312"/>
</filter>
</defs>
</svg>
